{
	"asset":{
		"generator":"Khronos glTF Blender I/O v3.6.27",
		"version":"2.0"
	},
	"scene":0,
	"scenes":[
		{
		    "name":"Scene",
			"nodes":[
				1,
				9
			]
		}
	],
	"nodes":[
		{
			"mesh":0,
			"name":"Suzanne",
			"translation":[
				-0.8174993991851807,
				1.1010230779647827,
				1.1611967086791992
			]
		},
		{
			"children":[
				0
			],
			"mesh":1,
			"name":"Cube",
			"translation":[
				2.7269287109375,
				1.3045321702957153,
				3.4277849197387695
			]
		},
		{
			"name":"BezierCircle",
			"translation":[
				5.198044776916504,
				0,
				0
			]
		},
		{
			"mesh":2,
			"name":"Cone"
		},
		{
			"mesh":3,
			"name":"Torus.001"
		},
		{
			"children":[
				3,
				4
			],
			"mesh":4,
			"name":"SurfSphere",
			"translation":[
				1.8889610767364502,
				1.3704980611801147,
				-4.356894016265869
			]
		},
		{
			"mesh":5,
			"name":"Cube.001",
			"translation":[
				-2.8277463912963867,
				0,
				1.78756844997406
			]
		},
		{
			"mesh":6,
			"name":"Suzanne.001",
			"translation":[
				-2.395221710205078,
				0.9235180616378784,
				-3.1515917778015137
			]
		},
		{
			"children":[
				6,
				7
			],
			"mesh":7,
			"name":"Torus.002"
		},
		{
			"children":[
				2,
				5,
				8
			],
			"mesh":8,
			"name":"Cylinder",
			"translation":[
				2.9851410388946533,
				1.3045321702957153,
				-0.8279575109481812
			]
		}
	],
	"meshes":[
		{
			"name":"Suzanne.001",
			"primitives":[
				{
					"attributes":{
						"POSITION":0,
						"NORMAL":1,
						"TEXCOORD_0":2
					},
					"indices":3
				}
			]
		},
		{
			"name":"Cube.002",
			"primitives":[
				{
					"attributes":{
						"POSITION":4,
						"NORMAL":5,
						"TEXCOORD_0":6
					},
					"indices":7
				}
			]
		},
		{
			"name":"Cone",
			"primitives":[
				{
					"attributes":{
						"POSITION":8,
						"NORMAL":9,
						"TEXCOORD_0":10
					},
					"indices":11
				}
			]
		},
		{
			"name":"Torus.001",
			"primitives":[
				{
					"attributes":{
						"POSITION":12,
						"NORMAL":13,
						"TEXCOORD_0":14
					},
					"indices":15
				}
			]
		},
		{
			"name":"SurfSphere",
			"primitives":[
				{
					"attributes":{
						"POSITION":16,
						"NORMAL":17,
						"TEXCOORD_0":18
					},
					"indices":19
				}
			]
		},
		{
			"name":"Cube.003",
			"primitives":[
				{
					"attributes":{
						"POSITION":20,
						"NORMAL":21,
						"TEXCOORD_0":22
					},
					"indices":7
				}
			]
		},
		{
			"name":"Suzanne.002",
			"primitives":[
				{
					"attributes":{
						"POSITION":23,
						"NORMAL":24,
						"TEXCOORD_0":25
					},
					"indices":3
				}
			]
		},
		{
			"name":"Torus.002",
			"primitives":[
				{
					"attributes":{
						"POSITION":26,
						"NORMAL":27,
						"TEXCOORD_0":28
					},
					"indices":15
				}
			]
		},
		{
			"name":"Cylinder.003",
			"primitives":[
				{
					"attributes":{
						"POSITION":29,
						"NORMAL":30,
						"TEXCOORD_0":31
					},
					"indices":32
				}
			]
		}
	],
	"accessors":[
		{
			"bufferView":0,
			"componentType":5126,
			"count":1966,
			"max":[
				1.3671875,
				0.984375,
				0.8515625
			],
			"min":[
				-1.3671875,
				-0.984375,
				-0.8515625
			],
			"type":"VEC3"
		},
		{
			"bufferView":1,
			"componentType":5126,
			"count":1966,
			"type":"VEC3"
		},
		{
			"bufferView":2,
			"componentType":5126,
			"count":1966,
			"type":"VEC2"
		},
		{
			"bufferView":3,
			"componentType":5123,
			"count":2904,
			"type":"SCALAR"
		},
		{
			"bufferView":4,
			"componentType":5126,
			"count":24,
			"max":[
				1,
				1,
				1
			],
			"min":[
				-1,
				-1,
				-1
			],
			"type":"VEC3"
		},
		{
			"bufferView":5,
			"componentType":5126,
			"count":24,
			"type":"VEC3"
		},
		{
			"bufferView":6,
			"componentType":5126,
			"count":24,
			"type":"VEC2"
		},
		{
			"bufferView":7,
			"componentType":5123,
			"count":36,
			"type":"SCALAR"
		},
		{
			"bufferView":8,
			"componentType":5126,
			"count":128,
			"max":[
				1,
				1,
				1
			],
			"min":[
				-1,
				-1,
				-1
			],
			"type":"VEC3"
		},
		{
			"bufferView":9,
			"componentType":5126,
			"count":128,
			"type":"VEC3"
		},
		{
			"bufferView":10,
			"componentType":5126,
			"count":128,
			"type":"VEC2"
		},
		{
			"bufferView":11,
			"componentType":5123,
			"count":186,
			"type":"SCALAR"
		},
		{
			"bufferView":12,
			"componentType":5126,
			"count":2304,
			"max":[
				1.25,
				0.25,
				1.25
			],
			"min":[
				-1.25,
				-0.25,
				-1.25
			],
			"type":"VEC3"
		},
		{
			"bufferView":13,
			"componentType":5126,
			"count":2304,
			"type":"VEC3"
		},
		{
			"bufferView":14,
			"componentType":5126,
			"count":2304,
			"type":"VEC2"
		},
		{
			"bufferView":15,
			"componentType":5123,
			"count":3456,
			"type":"SCALAR"
		},
		{
			"bufferView":16,
			"componentType":5126,
			"count":660,
			"max":[
				0.9971464276313782,
				1,
				0.997146487236023
			],
			"min":[
				-0.9971466064453125,
				-1.0000001192092896,
				-0.9971464276313782
			],
			"type":"VEC3"
		},
		{
			"bufferView":17,
			"componentType":5126,
			"count":660,
			"type":"VEC3"
		},
		{
			"bufferView":18,
			"componentType":5126,
			"count":660,
			"type":"VEC2"
		},
		{
			"bufferView":19,
			"componentType":5123,
			"count":3648,
			"type":"SCALAR"
		},
		{
			"bufferView":20,
			"componentType":5126,
			"count":24,
			"max":[
				1,
				1,
				1
			],
			"min":[
				-1,
				-1,
				-1
			],
			"type":"VEC3"
		},
		{
			"bufferView":21,
			"componentType":5126,
			"count":24,
			"type":"VEC3"
		},
		{
			"bufferView":22,
			"componentType":5126,
			"count":24,
			"type":"VEC2"
		},
		{
			"bufferView":23,
			"componentType":5126,
			"count":1966,
			"max":[
				1.3671875,
				0.984375,
				0.8515625
			],
			"min":[
				-1.3671875,
				-0.984375,
				-0.8515625
			],
			"type":"VEC3"
		},
		{
			"bufferView":24,
			"componentType":5126,
			"count":1966,
			"type":"VEC3"
		},
		{
			"bufferView":25,
			"componentType":5126,
			"count":1966,
			"type":"VEC2"
		},
		{
			"bufferView":26,
			"componentType":5126,
			"count":2304,
			"max":[
				1.25,
				0.25,
				1.25
			],
			"min":[
				-1.25,
				-0.25,
				-1.25
			],
			"type":"VEC3"
		},
		{
			"bufferView":27,
			"componentType":5126,
			"count":2304,
			"type":"VEC3"
		},
		{
			"bufferView":28,
			"componentType":5126,
			"count":2304,
			"type":"VEC2"
		},
		{
			"bufferView":29,
			"componentType":5126,
			"count":192,
			"max":[
				1,
				1,
				1
			],
			"min":[
				-1,
				-1,
				-1
			],
			"type":"VEC3"
		},
		{
			"bufferView":30,
			"componentType":5126,
			"count":192,
			"type":"VEC3"
		},
		{
			"bufferView":31,
			"componentType":5126,
			"count":192,
			"type":"VEC2"
		},
		{
			"bufferView":32,
			"componentType":5123,
			"count":372,
			"type":"SCALAR"
		}
	],
	"bufferViews":[
		{
			"buffer":0,
			"byteLength":23592,
			"byteOffset":0,
			"target":34962
		},
		{
			"buffer":0,
			"byteLength":23592,
			"byteOffset":23592,
			"target":34962
		},
		{
			"buffer":0,
			"byteLength":15728,
			"byteOffset":47184,
			"target":34962
		},
		{
			"buffer":0,
			"byteLength":5808,
			"byteOffset":62912,
			"target":34963
		},
		{
			"buffer":0,
			"byteLength":288,
			"byteOffset":68720,
			"target":34962
		},
		{
			"buffer":0,
			"byteLength":288,
			"byteOffset":69008,
			"target":34962
		},
		{
			"buffer":0,
			"byteLength":192,
			"byteOffset":69296,
			"target":34962
		},
		{
			"buffer":0,
			"byteLength":72,
			"byteOffset":69488,
			"target":34963
		},
		{
			"buffer":0,
			"byteLength":1536,
			"byteOffset":69560,
			"target":34962
		},
		{
			"buffer":0,
			"byteLength":1536,
			"byteOffset":71096,
			"target":34962
		},
		{
			"buffer":0,
			"byteLength":1024,
			"byteOffset":72632,
			"target":34962
		},
		{
			"buffer":0,
			"byteLength":372,
			"byteOffset":73656,
			"target":34963
		},
		{
			"buffer":0,
			"byteLength":27648,
			"byteOffset":74028,
			"target":34962
		},
		{
			"buffer":0,
			"byteLength":27648,
			"byteOffset":101676,
			"target":34962
		},
		{
			"buffer":0,
			"byteLength":18432,
			"byteOffset":129324,
			"target":34962
		},
		{
			"buffer":0,
			"byteLength":6912,
			"byteOffset":147756,
			"target":34963
		},
		{
			"buffer":0,
			"byteLength":7920,
			"byteOffset":154668,
			"target":34962
		},
		{
			"buffer":0,
			"byteLength":7920,
			"byteOffset":162588,
			"target":34962
		},
		{
			"buffer":0,
			"byteLength":5280,
			"byteOffset":170508,
			"target":34962
		},
		{
			"buffer":0,
			"byteLength":7296,
			"byteOffset":175788,
			"target":34963
		},
		{
			"buffer":0,
			"byteLength":288,
			"byteOffset":183084,
			"target":34962
		},
		{
			"buffer":0,
			"byteLength":288,
			"byteOffset":183372,
			"target":34962
		},
		{
			"buffer":0,
			"byteLength":192,
			"byteOffset":183660,
			"target":34962
		},
		{
			"buffer":0,
			"byteLength":23592,
			"byteOffset":183852,
			"target":34962
		},
		{
			"buffer":0,
			"byteLength":23592,
			"byteOffset":207444,
			"target":34962
		},
		{
			"buffer":0,
			"byteLength":15728,
			"byteOffset":231036,
			"target":34962
		},
		{
			"buffer":0,
			"byteLength":27648,
			"byteOffset":246764,
			"target":34962
		},
		{
			"buffer":0,
			"byteLength":27648,
			"byteOffset":274412,
			"target":34962
		},
		{
			"buffer":0,
			"byteLength":18432,
			"byteOffset":302060,
			"target":34962
		},
		{
			"buffer":0,
			"byteLength":2304,
			"byteOffset":320492,
			"target":34962
		},
		{
			"buffer":0,
			"byteLength":2304,
			"byteOffset":322796,
			"target":34962
		},
		{
			"buffer":0,
			"byteLength":1536,
			"byteOffset":325100,
			"target":34962
		},
		{
			"buffer":0,
			"byteLength":744,
			"byteOffset":326636,
			"target":34963
		}
	],
	"buffers":[
		{
			"byteLength":327380,
			"uri":"data:application/octet-stream;base64,"
		}
	]
}
