{
    "asset" : {
        "generator" : "Khronos glTF Blender I/O v1.8.19",
        "version" : "2.0"
    },
    "extensionsUsed" : [
        "KHR_materials_transmission"
    ],
    "scene" : 0,
    "scenes" : [
        {
            "name" : "Scene",
            "nodes" : [
                0,
                1,
                2
            ]
        }
    ],
    "nodes" : [
        {
            "mesh" : 0,
            "name" : "schermo",
            "scale" : [
                0.011961571872234344,
                0.23923146724700928,
                0.4186549782752991
            ],
            "translation" : [
                3.6670286655426025,
                1.1483585834503174,
                1.7200000286102295
            ]
        },
        {
            "mesh" : 1,
            "name" : "stand",
            "rotation" : [
                0,
                0,
                0.04361938312649727,
                0.9990482330322266
            ],
            "scale" : [
                0.017942359670996666,
                0.17942360043525696,
                0.017942359670996666
            ],
            "translation" : [
                3.7131762504577637,
                0.9450118541717529,
                1.7200000286102295
            ]
        },
        {
            "mesh" : 2,
            "name" : "base.003",
            "scale" : [
                0.11961573362350464,
                0.005980785936117172,
                0.11961573362350464
            ],
            "translation" : [
                3.701214551925659,
                0.7655882835388184,
                1.7200000286102295
            ]
        }
    ],
    "materials" : [
        {
            "doubleSided" : true,
            "name" : "Black",
            "pbrMetallicRoughness" : {
                "baseColorFactor" : [
                    0.03583185374736786,
                    0.03583185374736786,
                    0.03583185374736786,
                    1
                ],
                "metallicFactor" : 0,
                "roughnessFactor" : 0.5
            }
        },
        {
            "doubleSided" : true,
            "extensions" : {
                "KHR_materials_transmission" : {
                    "transmissionFactor" : 1
                }
            },
            "name" : "Glass",
            "pbrMetallicRoughness" : {
                "baseColorFactor" : [
                    0.800000011920929,
                    0.800000011920929,
                    0.800000011920929,
                    1
                ],
                "metallicFactor" : 0,
                "roughnessFactor" : 0.5549450516700745
            }
        },
        {
            "doubleSided" : true,
            "name" : "Piedi tavolo",
            "pbrMetallicRoughness" : {
                "baseColorFactor" : [
                    0.376255601644516,
                    0.376255601644516,
                    0.376255601644516,
                    1
                ],
                "metallicFactor" : 0,
                "roughnessFactor" : 0.5
            }
        }
    ],
    "meshes" : [
        {
            "name" : "Cube",
            "primitives" : [
                {
                    "attributes" : {
                        "POSITION" : 0,
                        "NORMAL" : 1,
                        "TEXCOORD_0" : 2
                    },
                    "indices" : 3,
                    "material" : 0
                },
                {
                    "attributes" : {
                        "POSITION" : 4,
                        "NORMAL" : 5,
                        "TEXCOORD_0" : 6
                    },
                    "indices" : 7,
                    "material" : 1
                }
            ]
        },
        {
            "name" : "Cylinder",
            "primitives" : [
                {
                    "attributes" : {
                        "POSITION" : 8,
                        "NORMAL" : 9,
                        "TEXCOORD_0" : 10
                    },
                    "indices" : 11,
                    "material" : 2
                }
            ]
        },
        {
            "name" : "Cube.001",
            "primitives" : [
                {
                    "attributes" : {
                        "POSITION" : 12,
                        "NORMAL" : 13,
                        "TEXCOORD_0" : 14
                    },
                    "indices" : 15,
                    "material" : 2
                }
            ]
        }
    ],
    "accessors" : [
        {
            "bufferView" : 0,
            "componentType" : 5126,
            "count" : 180,
            "max" : [
                1,
                1,
                1
            ],
            "min" : [
                -1,
                -1,
                -1
            ],
            "type" : "VEC3"
        },
        {
            "bufferView" : 1,
            "componentType" : 5126,
            "count" : 180,
            "type" : "VEC3"
        },
        {
            "bufferView" : 2,
            "componentType" : 5126,
            "count" : 180,
            "type" : "VEC2"
        },
        {
            "bufferView" : 3,
            "componentType" : 5123,
            "count" : 294,
            "type" : "SCALAR"
        },
        {
            "bufferView" : 4,
            "componentType" : 5126,
            "count" : 20,
            "max" : [
                -0.5760202407836914,
                0.9787164330482483,
                0.9787164330482483
            ],
            "min" : [
                -0.5760202407836914,
                -0.9787164330482483,
                -0.9787164330482483
            ],
            "type" : "VEC3"
        },
        {
            "bufferView" : 5,
            "componentType" : 5126,
            "count" : 20,
            "type" : "VEC3"
        },
        {
            "bufferView" : 6,
            "componentType" : 5126,
            "count" : 20,
            "type" : "VEC2"
        },
        {
            "bufferView" : 7,
            "componentType" : 5123,
            "count" : 54,
            "type" : "SCALAR"
        },
        {
            "bufferView" : 8,
            "componentType" : 5126,
            "count" : 96,
            "max" : [
                1,
                1,
                1
            ],
            "min" : [
                -1,
                -1,
                -1
            ],
            "type" : "VEC3"
        },
        {
            "bufferView" : 9,
            "componentType" : 5126,
            "count" : 96,
            "type" : "VEC3"
        },
        {
            "bufferView" : 10,
            "componentType" : 5126,
            "count" : 96,
            "type" : "VEC2"
        },
        {
            "bufferView" : 11,
            "componentType" : 5123,
            "count" : 180,
            "type" : "SCALAR"
        },
        {
            "bufferView" : 12,
            "componentType" : 5126,
            "count" : 24,
            "max" : [
                1,
                1,
                1
            ],
            "min" : [
                -1,
                -1,
                -1
            ],
            "type" : "VEC3"
        },
        {
            "bufferView" : 13,
            "componentType" : 5126,
            "count" : 24,
            "type" : "VEC3"
        },
        {
            "bufferView" : 14,
            "componentType" : 5126,
            "count" : 24,
            "type" : "VEC2"
        },
        {
            "bufferView" : 15,
            "componentType" : 5123,
            "count" : 36,
            "type" : "SCALAR"
        }
    ],
    "bufferViews" : [
        {
            "buffer" : 0,
            "byteLength" : 2160,
            "byteOffset" : 0
        },
        {
            "buffer" : 0,
            "byteLength" : 2160,
            "byteOffset" : 2160
        },
        {
            "buffer" : 0,
            "byteLength" : 1440,
            "byteOffset" : 4320
        },
        {
            "buffer" : 0,
            "byteLength" : 588,
            "byteOffset" : 5760
        },
        {
            "buffer" : 0,
            "byteLength" : 240,
            "byteOffset" : 6348
        },
        {
            "buffer" : 0,
            "byteLength" : 240,
            "byteOffset" : 6588
        },
        {
            "buffer" : 0,
            "byteLength" : 160,
            "byteOffset" : 6828
        },
        {
            "buffer" : 0,
            "byteLength" : 108,
            "byteOffset" : 6988
        },
        {
            "buffer" : 0,
            "byteLength" : 1152,
            "byteOffset" : 7096
        },
        {
            "buffer" : 0,
            "byteLength" : 1152,
            "byteOffset" : 8248
        },
        {
            "buffer" : 0,
            "byteLength" : 768,
            "byteOffset" : 9400
        },
        {
            "buffer" : 0,
            "byteLength" : 360,
            "byteOffset" : 10168
        },
        {
            "buffer" : 0,
            "byteLength" : 288,
            "byteOffset" : 10528
        },
        {
            "buffer" : 0,
            "byteLength" : 288,
            "byteOffset" : 10816
        },
        {
            "buffer" : 0,
            "byteLength" : 192,
            "byteOffset" : 11104
        },
        {
            "buffer" : 0,
            "byteLength" : 72,
            "byteOffset" : 11296
        }
    ],
    "buffers" : [
        {
            "byteLength" : 11368,
            "uri" : "data:application/octet-stream;base64,"
        }
    ]
}
