{
    "asset" : {
        "generator" : "Khronos glTF Blender I/O v1.8.19",
        "version" : "2.0"
    },
    "extensionsUsed" : [
        "KHR_materials_transmission"
    ],
    "scene" : 0,
    "scenes" : [
        {
            "name" : "Scene",
            "nodes" : [
                0,
                1,
                2
            ]
        }
    ],
    "nodes" : [
        {
            "mesh" : 0,
            "name" : "base.002",
            "scale" : [
                0.11961573362350464,
                0.005980785936117172,
                0.11961573362350464
            ],
            "translation" : [
                3.701214551925659,
                0.7655882835388184,
                4.199999809265137
            ]
        },
        {
            "mesh" : 1,
            "name" : "stand.002",
            "rotation" : [
                0,
                0,
                0.04361938312649727,
                0.9990482330322266
            ],
            "scale" : [
                0.017942359670996666,
                0.17942360043525696,
                0.017942359670996666
            ],
            "translation" : [
                3.7131762504577637,
                0.9450118541717529,
                4.199999809265137
            ]
        },
        {
            "mesh" : 2,
            "name" : "schermo.002",
            "scale" : [
                0.014999999664723873,
                0.23999999463558197,
                0.6000000238418579
            ],
            "translation" : [
                3.6084208488464355,
                1.149999976158142,
                4.199999809265137
            ]
        }
    ],
    "materials" : [
        {
            "doubleSided" : true,
            "name" : "Piedi tavolo",
            "pbrMetallicRoughness" : {
                "baseColorFactor" : [
                    0.376255601644516,
                    0.376255601644516,
                    0.376255601644516,
                    1
                ],
                "metallicFactor" : 0,
                "roughnessFactor" : 0.5
            }
        },
        {
            "doubleSided" : true,
            "name" : "Black",
            "pbrMetallicRoughness" : {
                "baseColorFactor" : [
                    0.03583185374736786,
                    0.03583185374736786,
                    0.03583185374736786,
                    1
                ],
                "metallicFactor" : 0,
                "roughnessFactor" : 0.5
            }
        },
        {
            "doubleSided" : true,
            "extensions" : {
                "KHR_materials_transmission" : {
                    "transmissionFactor" : 1
                }
            },
            "name" : "Glass",
            "pbrMetallicRoughness" : {
                "baseColorFactor" : [
                    0.800000011920929,
                    0.800000011920929,
                    0.800000011920929,
                    1
                ],
                "metallicFactor" : 0,
                "roughnessFactor" : 0.5549450516700745
            }
        }
    ],
    "meshes" : [
        {
            "name" : "Cube.008",
            "primitives" : [
                {
                    "attributes" : {
                        "POSITION" : 0,
                        "NORMAL" : 1,
                        "TEXCOORD_0" : 2
                    },
                    "indices" : 3,
                    "material" : 0
                }
            ]
        },
        {
            "name" : "Cylinder.002",
            "primitives" : [
                {
                    "attributes" : {
                        "POSITION" : 4,
                        "NORMAL" : 5,
                        "TEXCOORD_0" : 6
                    },
                    "indices" : 7,
                    "material" : 0
                }
            ]
        },
        {
            "name" : "Cube.009",
            "primitives" : [
                {
                    "attributes" : {
                        "POSITION" : 8,
                        "NORMAL" : 9,
                        "TEXCOORD_0" : 10
                    },
                    "indices" : 11,
                    "material" : 1
                },
                {
                    "attributes" : {
                        "POSITION" : 12,
                        "NORMAL" : 13,
                        "TEXCOORD_0" : 14
                    },
                    "indices" : 15,
                    "material" : 2
                }
            ]
        }
    ],
    "accessors" : [
        {
            "bufferView" : 0,
            "componentType" : 5126,
            "count" : 120,
            "max" : [
                1,
                1,
                1
            ],
            "min" : [
                -1,
                -1,
                -1
            ],
            "type" : "VEC3"
        },
        {
            "bufferView" : 1,
            "componentType" : 5126,
            "count" : 120,
            "type" : "VEC3"
        },
        {
            "bufferView" : 2,
            "componentType" : 5126,
            "count" : 120,
            "type" : "VEC2"
        },
        {
            "bufferView" : 3,
            "componentType" : 5123,
            "count" : 228,
            "type" : "SCALAR"
        },
        {
            "bufferView" : 4,
            "componentType" : 5126,
            "count" : 96,
            "max" : [
                1,
                1,
                1
            ],
            "min" : [
                -1,
                -1,
                -1
            ],
            "type" : "VEC3"
        },
        {
            "bufferView" : 5,
            "componentType" : 5126,
            "count" : 96,
            "type" : "VEC3"
        },
        {
            "bufferView" : 6,
            "componentType" : 5126,
            "count" : 96,
            "type" : "VEC2"
        },
        {
            "bufferView" : 7,
            "componentType" : 5123,
            "count" : 180,
            "type" : "SCALAR"
        },
        {
            "bufferView" : 8,
            "componentType" : 5126,
            "count" : 148,
            "max" : [
                4.5929718017578125,
                1,
                1
            ],
            "min" : [
                -1.4070281982421875,
                -1,
                -1
            ],
            "type" : "VEC3"
        },
        {
            "bufferView" : 9,
            "componentType" : 5126,
            "count" : 148,
            "type" : "VEC3"
        },
        {
            "bufferView" : 10,
            "componentType" : 5126,
            "count" : 148,
            "type" : "VEC2"
        },
        {
            "bufferView" : 11,
            "componentType" : 5123,
            "count" : 264,
            "type" : "SCALAR"
        },
        {
            "bufferView" : 12,
            "componentType" : 5126,
            "count" : 32,
            "max" : [
                2.9364850521087646,
                0.9703101515769958,
                0.9703101515769958
            ],
            "min" : [
                -1.0635147094726562,
                -0.9703101515769958,
                -0.9703101515769958
            ],
            "type" : "VEC3"
        },
        {
            "bufferView" : 13,
            "componentType" : 5126,
            "count" : 32,
            "type" : "VEC3"
        },
        {
            "bufferView" : 14,
            "componentType" : 5126,
            "count" : 32,
            "type" : "VEC2"
        },
        {
            "bufferView" : 15,
            "componentType" : 5123,
            "count" : 48,
            "type" : "SCALAR"
        }
    ],
    "bufferViews" : [
        {
            "buffer" : 0,
            "byteLength" : 1440,
            "byteOffset" : 0
        },
        {
            "buffer" : 0,
            "byteLength" : 1440,
            "byteOffset" : 1440
        },
        {
            "buffer" : 0,
            "byteLength" : 960,
            "byteOffset" : 2880
        },
        {
            "buffer" : 0,
            "byteLength" : 456,
            "byteOffset" : 3840
        },
        {
            "buffer" : 0,
            "byteLength" : 1152,
            "byteOffset" : 4296
        },
        {
            "buffer" : 0,
            "byteLength" : 1152,
            "byteOffset" : 5448
        },
        {
            "buffer" : 0,
            "byteLength" : 768,
            "byteOffset" : 6600
        },
        {
            "buffer" : 0,
            "byteLength" : 360,
            "byteOffset" : 7368
        },
        {
            "buffer" : 0,
            "byteLength" : 1776,
            "byteOffset" : 7728
        },
        {
            "buffer" : 0,
            "byteLength" : 1776,
            "byteOffset" : 9504
        },
        {
            "buffer" : 0,
            "byteLength" : 1184,
            "byteOffset" : 11280
        },
        {
            "buffer" : 0,
            "byteLength" : 528,
            "byteOffset" : 12464
        },
        {
            "buffer" : 0,
            "byteLength" : 384,
            "byteOffset" : 12992
        },
        {
            "buffer" : 0,
            "byteLength" : 384,
            "byteOffset" : 13376
        },
        {
            "buffer" : 0,
            "byteLength" : 256,
            "byteOffset" : 13760
        },
        {
            "buffer" : 0,
            "byteLength" : 96,
            "byteOffset" : 14016
        }
    ],
    "buffers" : [
        {
            "byteLength" : 14112,
            "uri" : "data:application/octet-stream;base64,"
        }
    ]
}
