{
	"asset":{
		"generator":"Khronos glTF Blender I/O v3.6.27",
		"version":"2.0"
	},
	"scene":0,
	"scenes":[
		{
			"name":"Scene",
			"nodes":[
				0,
				2
			]
		}
	],
	"nodes":[
		{
			"mesh":0,
			"name":"base",
			"rotation":[
				0,
				0.09758290648460388,
				0,
				0.9952273964881897
			],
			"scale":[
				0.75,
				0.15000000596046448,
				0.75
			],
			"translation":[
				0,
				0.1600000113248825,
				0
			]
		},
		{
			"mesh":1,
			"name":"Suzanne",
			"rotation":[
				0,
				0.7071068286895752,
				0,
				0.7071068286895752
			],
			"scale":[
				1,
				1,
				9.999999046325684
			],
			"translation":[
				100,
				0,
				0
			]
		},
		{
			"children":[
				1
			],
			"mesh":2,
			"name":"Cube",
			"scale":[
				0.004999999888241291,
				0.15000000596046448,
				0.15000000596046448
			],
			"translation":[
				0.7399995923042297,
				0.1600000113248825,
				0
			]
		}
	],
	"materials":[
		{
			"doubleSided":true,
			"name":"Black.001",
			"pbrMetallicRoughness":{
				"baseColorFactor":[
					0.03583185374736786,
					0.03583185374736786,
					0.03583185374736786,
					1
				],
				"metallicFactor":0,
				"roughnessFactor":0.5
			}
		},
		{
			"doubleSided":true,
			"name":"Piedi tavolo.001",
			"pbrMetallicRoughness":{
				"baseColorFactor":[
					0.376255601644516,
					0.376255601644516,
					0.376255601644516,
					1
				],
				"metallicFactor":0,
				"roughnessFactor":0.5
			}
		},
		{
			"doubleSided":true,
			"name":"sketchfab.001",
			"pbrMetallicRoughness":{
				"baseColorTexture":{
					"index":0
				},
				"metallicFactor":0,
				"roughnessFactor":0.5
			}
		}
	],
	"meshes":[
		{
			"name":"Cylinder.001",
			"primitives":[
				{
					"attributes":{
						"POSITION":0,
						"NORMAL":1,
						"TEXCOORD_0":2
					},
					"indices":3,
					"material":0
				},
				{
					"attributes":{
						"POSITION":4,
						"NORMAL":5,
						"TEXCOORD_0":6
					},
					"indices":7,
					"material":1
				}
			]
		},
		{
			"name":"Suzanne",
			"primitives":[
				{
					"attributes":{
						"POSITION":8,
						"NORMAL":9,
						"TEXCOORD_0":10
					},
					"indices":11
				}
			]
		},
		{
			"name":"Cube.001",
			"primitives":[
				{
					"attributes":{
						"POSITION":12,
						"NORMAL":13,
						"TEXCOORD_0":14
					},
					"indices":15,
					"material":2
				}
			]
		}
	],
	"textures":[
		{
			"sampler":0,
			"source":0
		}
	],
	"images":[
		{
			"bufferView":16,
			"mimeType":"image/png",
			"name":"sketchfab-logo"
		}
	],
	"accessors":[
		{
			"bufferView":0,
			"componentType":5126,
			"count":80,
			"max":[
				1,
				0.20982123911380768,
				1
			],
			"min":[
				-1,
				-1,
				-1
			],
			"type":"VEC3"
		},
		{
			"bufferView":1,
			"componentType":5126,
			"count":80,
			"type":"VEC3"
		},
		{
			"bufferView":2,
			"componentType":5126,
			"count":80,
			"type":"VEC2"
		},
		{
			"bufferView":3,
			"componentType":5123,
			"count":138,
			"type":"SCALAR"
		},
		{
			"bufferView":4,
			"componentType":5126,
			"count":80,
			"max":[
				1,
				1.0750054121017456,
				1
			],
			"min":[
				-1,
				0.20982123911380768,
				-1
			],
			"type":"VEC3"
		},
		{
			"bufferView":5,
			"componentType":5126,
			"count":80,
			"type":"VEC3"
		},
		{
			"bufferView":6,
			"componentType":5126,
			"count":80,
			"type":"VEC2"
		},
		{
			"bufferView":7,
			"componentType":5123,
			"count":138,
			"type":"SCALAR"
		},
		{
			"bufferView":8,
			"componentType":5126,
			"count":1966,
			"max":[
				1.3671875,
				0.984375,
				0.8515625
			],
			"min":[
				-1.3671875,
				-0.984375,
				-0.8515625
			],
			"type":"VEC3"
		},
		{
			"bufferView":9,
			"componentType":5126,
			"count":1966,
			"type":"VEC3"
		},
		{
			"bufferView":10,
			"componentType":5126,
			"count":1966,
			"type":"VEC2"
		},
		{
			"bufferView":11,
			"componentType":5123,
			"count":2904,
			"type":"SCALAR"
		},
		{
			"bufferView":12,
			"componentType":5126,
			"count":120,
			"max":[
				1,
				1,
				1
			],
			"min":[
				-1,
				-1,
				-1
			],
			"type":"VEC3"
		},
		{
			"bufferView":13,
			"componentType":5126,
			"count":120,
			"type":"VEC3"
		},
		{
			"bufferView":14,
			"componentType":5126,
			"count":120,
			"type":"VEC2"
		},
		{
			"bufferView":15,
			"componentType":5123,
			"count":228,
			"type":"SCALAR"
		}
	],
	"bufferViews":[
		{
			"buffer":0,
			"byteLength":960,
			"byteOffset":0,
			"target":34962
		},
		{
			"buffer":0,
			"byteLength":960,
			"byteOffset":960,
			"target":34962
		},
		{
			"buffer":0,
			"byteLength":640,
			"byteOffset":1920,
			"target":34962
		},
		{
			"buffer":0,
			"byteLength":276,
			"byteOffset":2560,
			"target":34963
		},
		{
			"buffer":0,
			"byteLength":960,
			"byteOffset":2836,
			"target":34962
		},
		{
			"buffer":0,
			"byteLength":960,
			"byteOffset":3796,
			"target":34962
		},
		{
			"buffer":0,
			"byteLength":640,
			"byteOffset":4756,
			"target":34962
		},
		{
			"buffer":0,
			"byteLength":276,
			"byteOffset":5396,
			"target":34963
		},
		{
			"buffer":0,
			"byteLength":23592,
			"byteOffset":5672,
			"target":34962
		},
		{
			"buffer":0,
			"byteLength":23592,
			"byteOffset":29264,
			"target":34962
		},
		{
			"buffer":0,
			"byteLength":15728,
			"byteOffset":52856,
			"target":34962
		},
		{
			"buffer":0,
			"byteLength":5808,
			"byteOffset":68584,
			"target":34963
		},
		{
			"buffer":0,
			"byteLength":1440,
			"byteOffset":74392,
			"target":34962
		},
		{
			"buffer":0,
			"byteLength":1440,
			"byteOffset":75832,
			"target":34962
		},
		{
			"buffer":0,
			"byteLength":960,
			"byteOffset":77272,
			"target":34962
		},
		{
			"buffer":0,
			"byteLength":456,
			"byteOffset":78232,
			"target":34963
		},
		{
			"buffer":0,
			"byteLength":16283,
			"byteOffset":78688
		}
	],
	"samplers":[
		{
			"magFilter":9729,
			"minFilter":9987
		}
	],
	"buffers":[
		{
			"byteLength":94972,
			"uri":"data:application/octet-stream;base64,"
		}
	]
}
